<?xml version="1.0" encoding="UTF-8"?>
<svg width="362px" height="105px" viewBox="0 0 362 105" version="1.1" xmlns="http://www.w3.org/2000/svg" xmlns:xlink="http://www.w3.org/1999/xlink">
    <!-- Generator: Sketch 55.2 (78181) - https://sketchapp.com -->
    <title>Catalyst Logo</title>
    <desc>Created with Sketch.</desc>
    <g id="Symbols" stroke="none" stroke-width="1" fill="none" fill-rule="evenodd">
        <g id="Catalyst-Logo---outlines-for-export-" transform="translate(-21.000000, -12.000000)">
            <g id="Catalyst-Logo" transform="translate(25.000000, 17.000000)">
                <g id="Title">
                    <path d="M137.15,65.5 L145.41,65.5 C147.113334,65.5 148.653334,65.78 150.03,66.34 C151.406666,66.9 152.573334,67.705 153.53,68.755 C154.486666,69.805 155.221666,71.0883335 155.735,72.605 C156.248334,74.1216665 156.505,75.8366665 156.505,77.75 C156.505,79.6866665 156.248334,81.4133335 155.735,82.93 C155.221666,84.4466665 154.486666,85.73 153.53,86.78 C152.573334,87.83 151.406666,88.6291665 150.03,89.1775 C148.653334,89.7258335 147.113334,90 145.41,90 L137.15,90 L137.15,65.5 Z M153.355,77.75 C153.355,76.28 153.191666,74.9441665 152.865,73.7425 C152.538334,72.5408335 152.025,71.5141665 151.325,70.6625 C150.625,69.8108335 149.744166,69.1458335 148.6825,68.6675 C147.620834,68.1891665 146.355,67.95 144.885,67.95 L140.195,67.95 L140.195,87.55 L144.885,87.55 C146.355,87.55 147.620834,87.3108335 148.6825,86.8325 C149.744166,86.3541665 150.625,85.6891665 151.325,84.8375 C152.025,83.9858335 152.538334,82.9591665 152.865,81.7575 C153.191666,80.5558335 153.355,79.22 153.355,77.75 Z M174.56245,86.22 C173.93245,87.48 173.07495,88.495 171.98995,89.265 C170.90495,90.035 169.499116,90.42 167.77245,90.42 C166.535784,90.42 165.42745,90.2041665 164.44745,89.7725 C163.46745,89.3408335 162.639116,88.7341665 161.96245,87.9525 C161.285784,87.1708335 160.77245,86.2491665 160.42245,85.1875 C160.07245,84.1258335 159.89745,82.965 159.89745,81.705 C159.89745,80.4683335 160.078284,79.3191665 160.43995,78.2575 C160.801616,77.1958335 161.31495,76.28 161.97995,75.51 C162.64495,74.74 163.461616,74.1391665 164.42995,73.7075 C165.398284,73.2758335 166.47745,73.06 167.66745,73.06 C168.92745,73.06 170.024116,73.2875 170.95745,73.7425 C171.890784,74.1975 172.666616,74.8041665 173.28495,75.5625 C173.903284,76.3208335 174.364116,77.1958335 174.66745,78.1875 C174.970784,79.1791665 175.12245,80.2116665 175.12245,81.285 L175.12245,82.265 L162.90745,82.265 C162.930784,83.035 163.04745,83.7758335 163.25745,84.4875 C163.46745,85.1991665 163.76495,85.8291665 164.14995,86.3775 C164.53495,86.9258335 165.030784,87.3575 165.63745,87.6725 C166.244116,87.9875 166.96745,88.145 167.80745,88.145 C168.950784,88.145 169.825784,87.8883335 170.43245,87.375 C171.039116,86.8616665 171.55245,86.1266665 171.97245,85.17 L174.56245,86.22 Z M167.59745,75.335 C166.26745,75.335 165.205784,75.7841665 164.41245,76.6825 C163.619116,77.5808335 163.15245,78.7066665 163.01245,80.06 L172.11245,80.06 C172.04245,78.59 171.593284,77.435 170.76495,76.595 C169.936616,75.755 168.880784,75.335 167.59745,75.335 Z M180.9649,77.785 C180.9649,78.5783335 181.2799,79.1558335 181.9099,79.5175 C182.5399,79.8791665 183.508234,80.1533335 184.8149,80.34 C185.678234,80.48 186.4949,80.655 187.2649,80.865 C188.0349,81.075 188.705734,81.3725 189.2774,81.7575 C189.849066,82.1425 190.298234,82.615 190.6249,83.175 C190.951566,83.735 191.1149,84.435 191.1149,85.275 C191.1149,86.8616665 190.5199,88.1158335 189.3299,89.0375 C188.1399,89.9591665 186.4949,90.42 184.3949,90.42 C182.3649,90.42 180.766566,89.9766665 179.5999,89.09 C178.433234,88.2033335 177.756566,86.92 177.5699,85.24 L180.4749,84.855 C180.591566,85.975 180.9649,86.8033335 181.5949,87.34 C182.2249,87.8766665 183.1699,88.145 184.4299,88.145 C185.6199,88.145 186.541566,87.9116665 187.1949,87.445 C187.848234,86.9783335 188.1749,86.3133335 188.1749,85.45 C188.1749,84.68 187.8599,84.1025 187.2299,83.7175 C186.5999,83.3325 185.491566,83.0116665 183.9049,82.755 C181.8049,82.4283335 180.2999,81.8741665 179.3899,81.0925 C178.4799,80.3108335 178.0249,79.255 178.0249,77.925 C178.0249,77.1316665 178.194066,76.4316665 178.5324,75.825 C178.870734,75.2183335 179.331566,74.7108335 179.9149,74.3025 C180.498234,73.8941665 181.169066,73.585 181.9274,73.375 C182.685734,73.165 183.4849,73.06 184.3249,73.06 C186.121566,73.06 187.609066,73.4741665 188.7874,74.3025 C189.965734,75.1308335 190.648234,76.2683335 190.8349,77.715 L187.9299,78.31 C187.813234,77.3533335 187.451566,76.6125 186.8449,76.0875 C186.238234,75.5625 185.363234,75.3 184.2199,75.3 C183.286566,75.3 182.510734,75.5041665 181.8924,75.9125 C181.274066,76.3208335 180.9649,76.945 180.9649,77.785 Z M194.78735,67.04 C194.78735,66.4566665 194.968184,65.99 195.32985,65.64 C195.691516,65.29 196.15235,65.115 196.71235,65.115 C197.27235,65.115 197.733184,65.29 198.09485,65.64 C198.456516,65.99 198.63735,66.4566665 198.63735,67.04 C198.63735,67.5533335 198.456516,67.9966665 198.09485,68.37 C197.733184,68.7433335 197.27235,68.93 196.71235,68.93 C196.15235,68.93 195.691516,68.7433335 195.32985,68.37 C194.968184,67.9966665 194.78735,67.5533335 194.78735,67.04 Z M195.24235,73.48 L198.18235,73.48 L198.18235,90 L195.24235,90 L195.24235,73.48 Z M218.3048,75.195 C218.141466,75.0083335 217.925634,74.88 217.6573,74.81 C217.388966,74.74 217.126466,74.705 216.8698,74.705 C216.496466,74.705 216.1698,74.7633335 215.8898,74.88 C215.6098,74.9966665 215.411466,75.1133335 215.2948,75.23 C215.761466,75.6966665 216.111466,76.2683335 216.3448,76.945 C216.578134,77.6216665 216.6948,78.2983335 216.6948,78.975 C216.6948,79.9083335 216.513966,80.7425 216.1523,81.4775 C215.790634,82.2125 215.2948,82.8308335 214.6648,83.3325 C214.0348,83.8341665 213.311466,84.2133335 212.4948,84.47 C211.678134,84.7266665 210.8148,84.855 209.9048,84.855 C209.228134,84.855 208.656466,84.8025 208.1898,84.6975 C207.723134,84.5925 207.3848,84.54 207.1748,84.54 C207.058134,84.54 206.9123,84.5633335 206.7373,84.61 C206.5623,84.6566665 206.3873,84.7383335 206.2123,84.855 C206.0373,84.9716665 205.891466,85.1291665 205.7748,85.3275 C205.658134,85.5258335 205.5998,85.765 205.5998,86.045 C205.5998,86.3483335 205.6873,86.5875 205.8623,86.7625 C206.0373,86.9375 206.328966,87.0775 206.7373,87.1825 C207.145634,87.2875 207.6823,87.375 208.3473,87.445 C209.0123,87.515 209.8348,87.585 210.8148,87.655 C211.981466,87.725 213.013966,87.8416665 213.9123,88.005 C214.810634,88.1683335 215.568966,88.4075 216.1873,88.7225 C216.805634,89.0375 217.2723,89.4458335 217.5873,89.9475 C217.9023,90.4491665 218.0598,91.0966665 218.0598,91.89 C218.0598,92.8933335 217.843966,93.745 217.4123,94.445 C216.980634,95.145 216.385634,95.7166665 215.6273,96.16 C214.868966,96.6033335 213.988134,96.9241665 212.9848,97.1225 C211.981466,97.3208335 210.908134,97.42 209.7648,97.42 C208.668134,97.42 207.6648,97.3325 206.7548,97.1575 C205.8448,96.9825 205.051466,96.7141665 204.3748,96.3525 C203.698134,95.9908335 203.173134,95.5241665 202.7998,94.9525 C202.426466,94.3808335 202.2398,93.6983335 202.2398,92.905 C202.2398,91.9716665 202.496466,91.155 203.0098,90.455 C203.523134,89.755 204.0598,89.2883335 204.6198,89.055 C204.013134,88.7983335 203.5698,88.4425 203.2898,87.9875 C203.0098,87.5325 202.8698,87.0483335 202.8698,86.535 C202.8698,85.8816665 203.068134,85.2808335 203.4648,84.7325 C203.861466,84.1841665 204.421466,83.7466665 205.1448,83.42 C204.608134,83 204.135634,82.4341665 203.7273,81.7225 C203.318966,81.0108335 203.1148,80.13 203.1148,79.08 C203.1148,78.1 203.301466,77.2366665 203.6748,76.49 C204.048134,75.7433335 204.5498,75.1191665 205.1798,74.6175 C205.8098,74.1158335 206.5273,73.7308335 207.3323,73.4625 C208.1373,73.1941665 208.971466,73.06 209.8348,73.06 C210.581466,73.06 211.2873,73.1416665 211.9523,73.305 C212.6173,73.4683335 213.1948,73.6783335 213.6848,73.935 C214.058134,73.6083335 214.518966,73.3225 215.0673,73.0775 C215.615634,72.8325 216.298134,72.71 217.1148,72.71 C217.768134,72.71 218.3398,72.8033335 218.8298,72.99 L218.3048,75.195 Z M206.0198,79.01 C206.0198,80.27 206.398966,81.2266665 207.1573,81.88 C207.915634,82.5333335 208.831466,82.86 209.9048,82.86 C210.978134,82.86 211.893966,82.5333335 212.6523,81.88 C213.410634,81.2266665 213.7898,80.27 213.7898,79.01 C213.7898,77.75 213.410634,76.7816665 212.6523,76.105 C211.893966,75.4283335 210.978134,75.09 209.9048,75.09 C208.831466,75.09 207.915634,75.4283335 207.1573,76.105 C206.398966,76.7816665 206.0198,77.75 206.0198,79.01 Z M210.0448,90.105 C209.1348,90.0583335 208.428966,90.0116665 207.9273,89.965 C207.425634,89.9183335 206.953134,89.8366665 206.5098,89.72 C206.0198,89.93 205.628966,90.2858335 205.3373,90.7875 C205.045634,91.2891665 204.8998,91.8783335 204.8998,92.555 C204.8998,93.5816665 205.366466,94.3166665 206.2998,94.76 C207.233134,95.2033335 208.3998,95.425 209.7998,95.425 C210.593134,95.425 211.328134,95.3608335 212.0048,95.2325 C212.681466,95.1041665 213.2648,94.9116665 213.7548,94.655 C214.2448,94.3983335 214.6298,94.0658335 214.9098,93.6575 C215.1898,93.2491665 215.3298,92.7766665 215.3298,92.24 C215.3298,91.8433335 215.2423,91.5225 215.0673,91.2775 C214.8923,91.0325 214.5948,90.8283335 214.1748,90.665 C213.7548,90.5016665 213.206466,90.3791665 212.5298,90.2975 C211.853134,90.2158335 211.0248,90.1516665 210.0448,90.105 Z M221.90725,73.48 L224.67225,73.48 L224.67225,75.965 C225.255584,75.0783335 225.961416,74.3725 226.78975,73.8475 C227.618084,73.3225 228.650584,73.06 229.88725,73.06 C230.680584,73.06 231.438916,73.1766665 232.16225,73.41 C232.885584,73.6433335 233.50975,73.9875 234.03475,74.4425 C234.55975,74.8975 234.97975,75.4691665 235.29475,76.1575 C235.60975,76.8458335 235.76725,77.645 235.76725,78.555 L235.76725,90 L232.82725,90 L232.82725,79.01 C232.82725,78.38 232.72225,77.8433335 232.51225,77.4 C232.30225,76.9566665 232.028084,76.5891665 231.68975,76.2975 C231.351416,76.0058335 230.97225,75.7958335 230.55225,75.6675 C230.13225,75.5391665 229.71225,75.475 229.29225,75.475 C228.708916,75.475 228.148916,75.6033335 227.61225,75.86 C227.075584,76.1166665 226.603084,76.4783335 226.19475,76.945 C225.786416,77.4116665 225.45975,77.9891665 225.21475,78.6775 C224.96975,79.3658335 224.84725,80.1416665 224.84725,81.005 L224.84725,90 L221.90725,90 L221.90725,73.48 Z M252.00215,71.73 C252.00215,72.36 252.095484,72.8966665 252.28215,73.34 C252.468816,73.7833335 252.78965,74.1683335 253.24465,74.495 C253.69965,74.8216665 254.29465,75.0958335 255.02965,75.3175 C255.76465,75.5391665 256.69215,75.7433335 257.81215,75.93 C259.165484,76.14 260.378816,76.42 261.45215,76.77 C262.525484,77.12 263.42965,77.5691665 264.16465,78.1175 C264.89965,78.6658335 265.465484,79.3366665 265.86215,80.13 C266.258816,80.9233335 266.45715,81.8916665 266.45715,83.035 C266.45715,84.1316665 266.252984,85.135 265.84465,86.045 C265.436316,86.955 264.852984,87.7308335 264.09465,88.3725 C263.336316,89.0141665 262.402984,89.5158335 261.29465,89.8775 C260.186316,90.2391665 258.93215,90.42 257.53215,90.42 C256.038816,90.42 254.726316,90.2333335 253.59465,89.86 C252.462984,89.4866665 251.506316,88.9675 250.72465,88.3025 C249.942984,87.6375 249.34215,86.8616665 248.92215,85.975 C248.50215,85.0883335 248.268816,84.1316665 248.22215,83.105 L251.23215,82.65 C251.278816,83.3033335 251.418816,83.9508335 251.65215,84.5925 C251.885484,85.2341665 252.24715,85.8058335 252.73715,86.3075 C253.22715,86.8091665 253.862984,87.2175 254.64465,87.5325 C255.426316,87.8475 256.388816,88.005 257.53215,88.005 C259.398816,88.005 260.816316,87.585 261.78465,86.745 C262.752984,85.905 263.23715,84.75 263.23715,83.28 C263.23715,82.6266665 263.13215,82.0491665 262.92215,81.5475 C262.71215,81.0458335 262.367984,80.6083335 261.88965,80.235 C261.411316,79.8616665 260.775484,79.5525 259.98215,79.3075 C259.188816,79.0625 258.220484,78.8583335 257.07715,78.695 C254.393816,78.3216665 252.35215,77.6216665 250.95215,76.595 C249.55215,75.5683335 248.85215,74.04 248.85215,72.01 C248.85215,70.9366665 249.056316,69.9741665 249.46465,69.1225 C249.872984,68.2708335 250.44465,67.5475 251.17965,66.9525 C251.91465,66.3575 252.801316,65.8966665 253.83965,65.57 C254.877984,65.2433335 256.015484,65.08 257.25215,65.08 C259.70215,65.08 261.67965,65.6516665 263.18465,66.795 C264.68965,67.9383335 265.605484,69.5133335 265.93215,71.52 L262.92215,72.29 C262.71215,70.82 262.163816,69.6591665 261.27715,68.8075 C260.390484,67.9558335 259.03715,67.53 257.21715,67.53 C255.420484,67.53 254.10215,67.915 253.26215,68.685 C252.42215,69.455 252.00215,70.47 252.00215,71.73 Z M272.0546,97 L274.9246,89.93 L268.4146,73.48 L271.4596,73.48 C272.276266,75.58 273.022934,77.5166665 273.6996,79.29 C273.9796,80.0366665 274.265434,80.7891665 274.5571,81.5475 C274.848766,82.3058335 275.1171,83.0116665 275.3621,83.665 C275.6071,84.3183335 275.822934,84.89 276.0096,85.38 C276.196266,85.87 276.3246,86.2316665 276.3946,86.465 L276.4646,86.465 C276.5346,86.2316665 276.651266,85.87 276.8146,85.38 C276.977934,84.89 277.1821,84.3183335 277.4271,83.665 C277.6721,83.0116665 277.940434,82.3058335 278.2321,81.5475 C278.523766,80.7891665 278.8096,80.0366665 279.0896,79.29 C279.766266,77.5166665 280.501266,75.58 281.2946,73.48 L284.1296,73.48 L275.0646,97 L272.0546,97 Z M289.27205,77.785 C289.27205,78.5783335 289.58705,79.1558335 290.21705,79.5175 C290.84705,79.8791665 291.815384,80.1533335 293.12205,80.34 C293.985384,80.48 294.80205,80.655 295.57205,80.865 C296.34205,81.075 297.012884,81.3725 297.58455,81.7575 C298.156216,82.1425 298.605384,82.615 298.93205,83.175 C299.258716,83.735 299.42205,84.435 299.42205,85.275 C299.42205,86.8616665 298.82705,88.1158335 297.63705,89.0375 C296.44705,89.9591665 294.80205,90.42 292.70205,90.42 C290.67205,90.42 289.073716,89.9766665 287.90705,89.09 C286.740384,88.2033335 286.063716,86.92 285.87705,85.24 L288.78205,84.855 C288.898716,85.975 289.27205,86.8033335 289.90205,87.34 C290.53205,87.8766665 291.47705,88.145 292.73705,88.145 C293.92705,88.145 294.848716,87.9116665 295.50205,87.445 C296.155384,86.9783335 296.48205,86.3133335 296.48205,85.45 C296.48205,84.68 296.16705,84.1025 295.53705,83.7175 C294.90705,83.3325 293.798716,83.0116665 292.21205,82.755 C290.11205,82.4283335 288.60705,81.8741665 287.69705,81.0925 C286.78705,80.3108335 286.33205,79.255 286.33205,77.925 C286.33205,77.1316665 286.501216,76.4316665 286.83955,75.825 C287.177884,75.2183335 287.638716,74.7108335 288.22205,74.3025 C288.805384,73.8941665 289.476216,73.585 290.23455,73.375 C290.992884,73.165 291.79205,73.06 292.63205,73.06 C294.428716,73.06 295.916216,73.4741665 297.09455,74.3025 C298.272884,75.1308335 298.955384,76.2683335 299.14205,77.715 L296.23705,78.31 C296.120384,77.3533335 295.758716,76.6125 295.15205,76.0875 C294.545384,75.5625 293.670384,75.3 292.52705,75.3 C291.593716,75.3 290.817884,75.5041665 290.19955,75.9125 C289.581216,76.3208335 289.27205,76.945 289.27205,77.785 Z M311.4945,89.755 C311.167834,89.9416665 310.742,90.0991665 310.217,90.2275 C309.692,90.3558335 309.126166,90.42 308.5195,90.42 C307.796166,90.42 307.166166,90.3091665 306.6295,90.0875 C306.092834,89.8658335 305.6495,89.5683335 305.2995,89.195 C304.9495,88.8216665 304.687,88.39 304.512,87.9 C304.337,87.41 304.2495,86.8966665 304.2495,86.36 L304.2495,75.72 L301.4495,75.72 L301.4495,73.48 L304.2495,73.48 L304.2495,68.755 L307.1895,67.425 L307.1895,73.48 L311.0395,73.48 L311.0395,75.72 L307.1895,75.72 L307.1895,86.08 C307.1895,86.6866665 307.341166,87.1533335 307.6445,87.48 C307.947834,87.8066665 308.367834,87.97 308.9045,87.97 C309.207834,87.97 309.4995,87.9233335 309.7795,87.83 C310.0595,87.7366665 310.316166,87.6083335 310.5495,87.445 L311.4945,89.755 Z M328.15195,86.22 C327.52195,87.48 326.66445,88.495 325.57945,89.265 C324.49445,90.035 323.088616,90.42 321.36195,90.42 C320.125284,90.42 319.01695,90.2041665 318.03695,89.7725 C317.05695,89.3408335 316.228616,88.7341665 315.55195,87.9525 C314.875284,87.1708335 314.36195,86.2491665 314.01195,85.1875 C313.66195,84.1258335 313.48695,82.965 313.48695,81.705 C313.48695,80.4683335 313.667784,79.3191665 314.02945,78.2575 C314.391116,77.1958335 314.90445,76.28 315.56945,75.51 C316.23445,74.74 317.051116,74.1391665 318.01945,73.7075 C318.987784,73.2758335 320.06695,73.06 321.25695,73.06 C322.51695,73.06 323.613616,73.2875 324.54695,73.7425 C325.480284,74.1975 326.256116,74.8041665 326.87445,75.5625 C327.492784,76.3208335 327.953616,77.1958335 328.25695,78.1875 C328.560284,79.1791665 328.71195,80.2116665 328.71195,81.285 L328.71195,82.265 L316.49695,82.265 C316.520284,83.035 316.63695,83.7758335 316.84695,84.4875 C317.05695,85.1991665 317.35445,85.8291665 317.73945,86.3775 C318.12445,86.9258335 318.620284,87.3575 319.22695,87.6725 C319.833616,87.9875 320.55695,88.145 321.39695,88.145 C322.540284,88.145 323.415284,87.8883335 324.02195,87.375 C324.628616,86.8616665 325.14195,86.1266665 325.56195,85.17 L328.15195,86.22 Z M321.18695,75.335 C319.85695,75.335 318.795284,75.7841665 318.00195,76.6825 C317.208616,77.5808335 316.74195,78.7066665 316.60195,80.06 L325.70195,80.06 C325.63195,78.59 325.182784,77.435 324.35445,76.595 C323.526116,75.755 322.470284,75.335 321.18695,75.335 Z M332.6994,73.48 L335.4644,73.48 L335.4644,75.965 C336.001066,75.0783335 336.666066,74.3725 337.4594,73.8475 C338.252734,73.3225 339.2444,73.06 340.4344,73.06 C341.601066,73.06 342.6219,73.3166665 343.4969,73.83 C344.3719,74.3433335 345.007734,75.09 345.4044,76.07 C345.637734,75.6966665 345.9294,75.3291665 346.2794,74.9675 C346.6294,74.6058335 347.037734,74.285 347.5044,74.005 C347.971066,73.725 348.478566,73.4975 349.0269,73.3225 C349.575234,73.1475 350.152734,73.06 350.7594,73.06 C351.506066,73.06 352.2119,73.1766665 352.8769,73.41 C353.5419,73.6433335 354.1194,73.9875 354.6094,74.4425 C355.0994,74.8975 355.490234,75.4691665 355.7819,76.1575 C356.073566,76.8458335 356.2194,77.645 356.2194,78.555 L356.2194,90 L353.2794,90 L353.2794,79.01 C353.2794,78.38 353.186066,77.8433335 352.9994,77.4 C352.812734,76.9566665 352.573566,76.5891665 352.2819,76.2975 C351.990234,76.0058335 351.6519,75.7958335 351.2669,75.6675 C350.8819,75.5391665 350.491066,75.475 350.0944,75.475 C349.557734,75.475 349.038566,75.6033335 348.5369,75.86 C348.035234,76.1166665 347.5919,76.4783335 347.2069,76.945 C346.8219,77.4116665 346.512734,77.9891665 346.2794,78.6775 C346.046066,79.3658335 345.9294,80.1416665 345.9294,81.005 L345.9294,90 L342.9894,90 L342.9894,79.01 C342.9894,78.38 342.896066,77.8433335 342.7094,77.4 C342.522734,76.9566665 342.277734,76.5891665 341.9744,76.2975 C341.671066,76.0058335 341.3269,75.7958335 340.9419,75.6675 C340.5569,75.5391665 340.166066,75.475 339.7694,75.475 C339.232734,75.475 338.7194,75.6033335 338.2294,75.86 C337.7394,76.1166665 337.3019,76.4783335 336.9169,76.945 C336.5319,77.4116665 336.222734,77.9891665 335.9894,78.6775 C335.756066,79.3658335 335.6394,80.1416665 335.6394,81.005 L335.6394,90 L332.6994,90 L332.6994,73.48 Z" id="DesignSystem" fill="#052A50" fill-rule="nonzero"></path>
                    <path d="M133.88,26 C133.88,22.6800003 134.33,19.6800003 135.23,17 C136.13,14.3199997 137.43,12.0300003 139.13,10.13 C140.83,8.22999969 142.9,6.77 145.34,5.75 C147.78,4.73 150.52,4.22 153.56,4.22 C157.88,4.22 161.43,5.19999969 164.21,7.16 C166.99,9.12000031 169.06,11.9199997 170.42,15.56 L163.64,17.96 C162.84,15.6000003 161.62,13.7 159.98,12.26 C158.34,10.82 156.14,10.1 153.38,10.1 C151.42,10.1 149.68,10.4799997 148.16,11.24 C146.64,12.0000003 145.37,13.0800003 144.35,14.48 C143.33,15.8799997 142.55,17.5599997 142.01,19.52 C141.47,21.4800003 141.2,23.6400003 141.2,26 C141.2,28.3599997 141.46,30.5100003 141.98,32.45 C142.5,34.3899997 143.28,36.0600003 144.32,37.46 C145.36,38.8599997 146.63,39.95 148.13,40.73 C149.63,41.51 151.38,41.9 153.38,41.9 C156.02,41.9 158.16,41.22 159.8,39.86 C161.44,38.4999997 162.7,36.62 163.58,34.22 L170.3,36.68 C168.9,40.1199997 166.82,42.83 164.06,44.81 C161.3,46.79 157.76,47.78 153.44,47.78 C150.4,47.78 147.67,47.27 145.25,46.25 C142.83,45.23 140.78,43.7799997 139.1,41.9 C137.42,40.0200003 136.13,37.73 135.23,35.03 C134.33,32.33 133.88,29.3199997 133.88,26 Z M194.8275,47 C194.6675,46.7199997 194.5275,46.2399997 194.4075,45.56 C194.2875,44.8800003 194.2275,44.1399997 194.2275,43.34 C193.3075,44.66 192.1375,45.7299997 190.7175,46.55 C189.2975,47.3700003 187.4475,47.78 185.1675,47.78 C182.2875,47.78 179.9775,47.06 178.2375,45.62 C176.4975,44.18 175.6275,42.2 175.6275,39.68 C175.6275,37.76 176.1375,36.17 177.1575,34.91 C178.1775,33.65 179.5375,32.6400003 181.2375,31.88 C182.9375,31.1199997 184.8975,30.5799997 187.1175,30.26 C189.3375,29.9400003 191.6675,29.78 194.1075,29.78 L194.1075,27.98 C194.1075,26.4600003 193.6875,25.2300003 192.8475,24.29 C192.0075,23.3499997 190.6875,22.88 188.8875,22.88 C187.0875,22.88 185.7475,23.3199997 184.8675,24.2 C183.9875,25.0800003 183.5275,26.12 183.4875,27.32 L176.8875,26.36 C177.0475,24.9600003 177.4775,23.7300003 178.1775,22.67 C178.8775,21.6099997 179.7775,20.72 180.8775,20 C181.9775,19.28 183.2375,18.7299997 184.6575,18.35 C186.0775,17.9700003 187.5675,17.78 189.1275,17.78 C190.8475,17.78 192.4175,18.0000003 193.8375,18.44 C195.2575,18.8799997 196.4775,19.5300003 197.4975,20.39 C198.5175,21.2499997 199.3175,22.3200003 199.8975,23.6 C200.4775,24.8799997 200.7675,26.3799997 200.7675,28.1 L200.7675,43.1 C200.7675,43.9800003 200.8275,44.7099997 200.9475,45.29 C201.0675,45.8700003 201.2275,46.4400003 201.4275,47 L194.8275,47 Z M187.0275,42.74 C187.9075,42.74 188.7775,42.6000003 189.6375,42.32 C190.4975,42.0399997 191.2575,41.63 191.9175,41.09 C192.5775,40.55 193.1075,39.9000003 193.5075,39.14 C193.9075,38.3799997 194.1075,37.5000003 194.1075,36.5 L194.1075,34.16 C190.5875,34.16 187.7475,34.5399997 185.5875,35.3 C183.4275,36.0600003 182.3475,37.3800003 182.3475,39.26 C182.3475,40.4199997 182.7875,41.2899997 183.6675,41.87 C184.5475,42.4500003 185.6675,42.74 187.0275,42.74 Z M225.295,46.58 C224.575,46.94 223.705,47.2299997 222.685,47.45 C221.665,47.6700003 220.595,47.78 219.475,47.78 C216.835,47.78 214.755,47.09 213.235,45.71 C211.715,44.33 210.955,42.32 210.955,39.68 L210.955,23.6 L206.155,23.6 L206.155,18.56 L210.955,18.56 L210.955,10.46 L217.735,7.34 L217.735,18.56 L224.155,18.56 L224.155,23.6 L217.735,23.6 L217.735,38.84 C217.735,40.0800003 217.985,40.9500003 218.485,41.45 C218.985,41.9499997 219.635,42.2 220.435,42.2 C221.035,42.2 221.575,42.0999997 222.055,41.9 C222.535,41.7000003 222.995,41.48 223.435,41.24 L225.295,46.58 Z M249.1625,47 C249.0025,46.7199997 248.8625,46.2399997 248.7425,45.56 C248.6225,44.8800003 248.5625,44.1399997 248.5625,43.34 C247.6425,44.66 246.4725,45.7299997 245.0525,46.55 C243.6325,47.3700003 241.7825,47.78 239.5025,47.78 C236.6225,47.78 234.3125,47.06 232.5725,45.62 C230.8325,44.18 229.9625,42.2 229.9625,39.68 C229.9625,37.76 230.4725,36.17 231.4925,34.91 C232.5125,33.65 233.8725,32.6400003 235.5725,31.88 C237.2725,31.1199997 239.2325,30.5799997 241.4525,30.26 C243.6725,29.9400003 246.0025,29.78 248.4425,29.78 L248.4425,27.98 C248.4425,26.4600003 248.0225,25.2300003 247.1825,24.29 C246.3425,23.3499997 245.0225,22.88 243.2225,22.88 C241.4225,22.88 240.0825,23.3199997 239.2025,24.2 C238.3225,25.0800003 237.8625,26.12 237.8225,27.32 L231.2225,26.36 C231.3825,24.9600003 231.8125,23.7300003 232.5125,22.67 C233.2125,21.6099997 234.1125,20.72 235.2125,20 C236.3125,19.28 237.5725,18.7299997 238.9925,18.35 C240.4125,17.9700003 241.9025,17.78 243.4625,17.78 C245.1825,17.78 246.7525,18.0000003 248.1725,18.44 C249.5925,18.8799997 250.8125,19.5300003 251.8325,20.39 C252.8525,21.2499997 253.6525,22.3200003 254.2325,23.6 C254.8125,24.8799997 255.1025,26.3799997 255.1025,28.1 L255.1025,43.1 C255.1025,43.9800003 255.1625,44.7099997 255.2825,45.29 C255.4025,45.8700003 255.5625,46.4400003 255.7625,47 L249.1625,47 Z M241.3625,42.74 C242.2425,42.74 243.1125,42.6000003 243.9725,42.32 C244.8325,42.0399997 245.5925,41.63 246.2525,41.09 C246.9125,40.55 247.4425,39.9000003 247.8425,39.14 C248.2425,38.3799997 248.4425,37.5000003 248.4425,36.5 L248.4425,34.16 C244.9225,34.16 242.0825,34.5399997 239.9225,35.3 C237.7625,36.0600003 236.6825,37.3800003 236.6825,39.26 C236.6825,40.4199997 237.1225,41.2899997 238.0025,41.87 C238.8825,42.4500003 240.0025,42.74 241.3625,42.74 Z M264.39,5 L271.23,5 L271.23,47 L264.39,47 L264.39,5 Z M283.9375,59 L288.6175,47.06 L277.4575,18.56 L284.4175,18.56 C285.5775,21.8400003 286.6775,24.8799997 287.7175,27.68 L289.0375,31.28 C289.4775,32.48 289.8875,33.6000003 290.2675,34.64 C290.6475,35.6799997 290.9775,36.62 291.2575,37.46 C291.5375,38.3 291.7575,38.9199997 291.9175,39.32 L292.0375,39.32 C292.1575,38.9199997 292.3575,38.3 292.6375,37.46 C292.9175,36.62 293.2375,35.6799997 293.5975,34.64 C293.9575,33.6000003 294.3575,32.48 294.7975,31.28 L296.1175,27.68 C297.1575,24.8799997 298.2575,21.8400003 299.4175,18.56 L305.8975,18.56 L290.5975,59 L283.9375,59 Z M317.285,26.12 C317.285,27.3999997 317.825,28.28 318.905,28.76 C319.985,29.24 321.405,29.6199997 323.165,29.9 C324.645,30.0999997 326.065,30.3900003 327.425,30.77 C328.785,31.1499997 329.975,31.67 330.995,32.33 C332.015,32.99 332.835,33.83 333.455,34.85 C334.075,35.87 334.385,37.1199997 334.385,38.6 C334.385,41.48 333.275,43.73 331.055,45.35 C328.835,46.97 325.865,47.78 322.145,47.78 C318.625,47.78 315.745,47.0499997 313.505,45.59 C311.265,44.1300003 309.985,42.0000003 309.665,39.2 L316.265,38.24 C316.425,39.8400003 317.025,41 318.065,41.72 C319.105,42.44 320.485,42.8 322.205,42.8 C323.805,42.8 325.095,42.5 326.075,41.9 C327.055,41.3 327.545,40.3599997 327.545,39.08 C327.545,37.9599997 327.085,37.13 326.165,36.59 C325.245,36.05 323.605,35.6 321.245,35.24 C319.605,35 318.125,34.67 316.805,34.25 C315.485,33.83 314.355,33.29 313.415,32.63 C312.475,31.97 311.745,31.1499997 311.225,30.17 C310.705,29.1900003 310.445,27.9999997 310.445,26.6 C310.445,25.1199997 310.765,23.8200003 311.405,22.7 C312.045,21.5799997 312.905,20.66 313.985,19.94 C315.065,19.22 316.315,18.68 317.735,18.32 C319.155,17.96 320.625,17.78 322.145,17.78 C323.705,17.78 325.165,17.96 326.525,18.32 C327.885,18.68 329.085,19.19 330.125,19.85 C331.165,20.51 332.015,21.3300003 332.675,22.31 C333.335,23.2899997 333.765,24.38 333.965,25.58 L327.365,26.96 C327.165,25.5999997 326.625,24.5499997 325.745,23.81 C324.865,23.0700003 323.625,22.7 322.025,22.7 C320.705,22.7 319.585,22.9899997 318.665,23.57 C317.745,24.1500003 317.285,24.9999997 317.285,26.12 Z M357.8325,46.58 C357.1125,46.94 356.2425,47.2299997 355.2225,47.45 C354.2025,47.6700003 353.1325,47.78 352.0125,47.78 C349.3725,47.78 347.2925,47.09 345.7725,45.71 C344.2525,44.33 343.4925,42.32 343.4925,39.68 L343.4925,23.6 L338.6925,23.6 L338.6925,18.56 L343.4925,18.56 L343.4925,10.46 L350.2725,7.34 L350.2725,18.56 L356.6925,18.56 L356.6925,23.6 L350.2725,23.6 L350.2725,38.84 C350.2725,40.0800003 350.5225,40.9500003 351.0225,41.45 C351.5225,41.9499997 352.1725,42.2 352.9725,42.2 C353.5725,42.2 354.1125,42.0999997 354.5925,41.9 C355.0725,41.7000003 355.5325,41.48 355.9725,41.24 L357.8325,46.58 Z" id="Catalyst" fill="#052A50" fill-rule="nonzero"></path>
                    <g id="Style-Guide-Icon" stroke="#052A4E" stroke-width="4.5">
                        <polygon id="Triangle" fill="#FFFFFF" points="34.5 0 69 58 0 58"></polygon>
                        <ellipse id="Oval" fill="#FFFBCF" cx="74.5" cy="65" rx="31.5" ry="32"></ellipse>
                    </g>
                </g>
            </g>
        </g>
    </g>
</svg>